ffmpeg started on 2016-12-02 at 22:54:33
Report written to "Output/x264/results/ffmpeg/old_town_cross_2160p50veryslow14000k.log"
Command line:
Tools/ffmpeg/ffmpeg -benchmark -y -i Input/y4m/old_town_cross_2160p50.y4m -c:v libx264 -preset veryslow -b:v 14000k -an Output/x264/encoded/old_town_cross_2160p50veryslow14000k.mkv
ffmpeg version N-82227-gdb23fde Copyright (c) 2000-2016 the FFmpeg developers
  built with gcc 5.4.0 (Ubuntu 5.4.0-6ubuntu1~16.04.2) 20160609
  configuration: --prefix=/home/jaroslav/ffmpeg_build --pkg-config-flags=--static --extra-cflags=-I/home/jaroslav/ffmpeg_build/include --extra-ldflags=-L/home/jaroslav/ffmpeg_build/lib --bindir=/home/jaroslav/bin --enable-gpl --enable-libass --enable-libfdk-aac --enable-libfreetype --enable-libmp3lame --enable-libopus --enable-libtheora --enable-libvorbis --enable-libvpx --enable-libx264 --enable-libx265 --enable-nvenc --enable-libmfx --enable-libxvid --enable-libgsm --enable-libopencore-amrnb --enable-version3 --enable-nonfree
  libavutil      55. 35.100 / 55. 35.100
  libavcodec     57. 66.101 / 57. 66.101
  libavformat    57. 57.100 / 57. 57.100
  libavdevice    57.  2.100 / 57.  2.100
  libavfilter     6. 66.100 /  6. 66.100
  libswscale      4.  3.100 /  4.  3.100
  libswresample   2.  4.100 /  2.  4.100
  libpostproc    54.  2.100 / 54.  2.100
Input #0, yuv4mpegpipe, from 'Input/y4m/old_town_cross_2160p50.y4m':
  Duration: 00:00:10.00, start: 0.000000, bitrate: 4976642 kb/s
    Stream #0:0: Video: rawvideo (I420 / 0x30323449), yuv420p(progressive), 3840x2160, SAR 1:1 DAR 16:9, 50 fps, 50 tbr, 50 tbn, 50 tbc
[libx264 @ 0x3723120] using SAR=1/1
[libx264 @ 0x3723120] DPB size (16 frames, 518400 mbs) > level limit (5 frames, 184320 mbs)
[libx264 @ 0x3723120] using cpu capabilities: MMX2 SSE2Fast SSSE3 SSE4.2 AVX FMA3 AVX2 LZCNT BMI2
[libx264 @ 0x3723120] profile High, level 5.2
[libx264 @ 0x3723120] 264 - core 148 - H.264/MPEG-4 AVC codec - Copyleft 2003-2016 - http://www.videolan.org/x264.html - options: cabac=1 ref=16 deblock=1:0:0 analyse=0x3:0x133 me=umh subme=10 psy=1 psy_rd=1.00:0.00 mixed_ref=1 me_range=24 chroma_me=1 trellis=2 8x8dct=1 cqm=0 deadzone=21,11 fast_pskip=1 chroma_qp_offset=-2 threads=6 lookahead_threads=1 sliced_threads=0 nr=0 decimate=1 interlaced=0 bluray_compat=0 constrained_intra=0 bframes=8 b_pyramid=2 b_adapt=2 b_bias=0 direct=3 weightb=1 open_gop=0 weightp=2 keyint=250 keyint_min=25 scenecut=40 intra_refresh=0 rc_lookahead=60 rc=abr mbtree=1 bitrate=14000 ratetol=1.0 qcomp=0.60 qpmin=0 qpmax=69 qpstep=4 ip_ratio=1.40 aq=1:1.00
Output #0, matroska, to 'Output/x264/encoded/old_town_cross_2160p50veryslow14000k.mkv':
  Metadata:
    encoder         : Lavf57.57.100
    Stream #0:0: Video: h264 (libx264) (H264 / 0x34363248), yuv420p, 3840x2160 [SAR 1:1 DAR 16:9], q=-1--1, 14000 kb/s, 50 fps, 1k tbn, 50 tbc
    Metadata:
      encoder         : Lavc57.66.101 libx264
    Side data:
      cpb: bitrate max/min/avg: 0/0/14000000 buffer size: 0 vbv_delay: -1
Stream mapping:
  Stream #0:0 -> #0:0 (rawvideo (native) -> h264 (libx264))
Press [q] to stop, [?] for help
frame=   60 fps=0.0 q=0.0 size=       0kB time=00:00:00.00 bitrate=N/A speed=   0x    frame=   72 fps=8.0 q=0.0 size=       0kB time=00:00:00.00 bitrate=N/A speed=   0x    frame=   77 fps=5.8 q=31.0 size=       1kB time=-00:00:00.01 bitrate=N/A speed=N/A    frame=   78 fps=5.5 q=31.0 size=       1kB time=00:00:00.00 bitrate=5888.0kbits/s speed=7.01e-05x    frame=   80 fps=5.3 q=31.0 size=       1kB time=00:00:00.04 bitrate= 143.6kbits/s speed=0.0027x    frame=   83 fps=5.1 q=32.0 size=       1kB time=00:00:00.10 bitrate=  58.3kbits/s speed=0.00625x    frame=   84 fps=4.7 q=32.0 size=       1kB time=00:00:00.12 bitrate=  48.7kbits/s speed=0.00678x    frame=   86 fps=4.6 q=35.0 size=       1kB time=00:00:00.16 bitrate=  36.6kbits/s speed=0.00855x    frame=   90 fps=4.4 q=47.0 size=       1kB time=00:00:00.24 bitrate=  24.4kbits/s speed=0.0118x    frame=   96 fps=4.6 q=44.0 size=       1kB time=00:00:00.36 bitrate=  16.3kbits/s speed=0.0172x    frame=   97 fps=4.4 q=45.0 size=       1kB time=00:00:00.38 bitrate=  15.5kbits/s speed=0.0174x    frame=  100 fps=4.3 q=46.0 size=       1kB time=00:00:00.44 bitrate=  13.4kbits/s speed=0.0189x    frame=  105 fps=4.4 q=46.0 size=       1kB time=00:00:00.54 bitrate=  10.9kbits/s speed=0.0225x    frame=  106 fps=4.2 q=46.0 size=       1kB time=00:00:00.56 bitrate=  10.5kbits/s speed=0.0223x    frame=  108 fps=4.2 q=45.0 size=       1kB time=00:00:00.60 bitrate=   9.8kbits/s speed=0.0231x    frame=  113 fps=4.2 q=44.0 size=       1kB time=00:00:00.70 bitrate=   8.4kbits/s speed=0.0257x    frame=  114 fps=4.0 q=44.0 size=       1kB time=00:00:00.72 bitrate=   8.2kbits/s speed=0.0256x    frame=  117 fps=4.0 q=43.0 size=       1kB time=00:00:00.78 bitrate=   7.5kbits/s speed=0.0269x    frame=  120 fps=4.1 q=43.0 size=       1kB time=00:00:00.84 bitrate=   7.0kbits/s speed=0.0285x    frame=  122 fps=4.0 q=42.0 size=       1kB time=00:00:00.88 bitrate=   6.7kbits/s speed=0.0286x    frame=  123 fps=3.8 q=42.0 size=       1kB time=00:00:00.90 bitrate=   6.5kbits/s speed=0.0281x    frame=  128 fps=3.9 q=41.0 size=       1kB time=00:00:01.00 bitrate=   5.9kbits/s speed=0.0302x    frame=  129 fps=3.7 q=41.0 size=       1kB time=00:00:01.02 bitrate=   5.8kbits/s speed=0.0293x    frame=  132 fps=3.7 q=41.0 size=       1kB time=00:00:01.08 bitrate=   5.4kbits/s speed=0.0301x    frame=  134 fps=3.7 q=40.0 size=       1kB time=00:00:01.12 bitrate=   5.3kbits/s speed=0.0308x    frame=  135 fps=3.6 q=40.0 size=       1kB time=00:00:01.14 bitrate=   5.2kbits/s speed=0.0303x    frame=  136 fps=3.5 q=40.0 size=       1kB time=00:00:01.16 bitrate=   5.1kbits/s speed=0.0302x    frame=  138 fps=3.5 q=40.0 size=       1kB time=00:00:01.20 bitrate=   4.9kbits/s speed=0.0307x    frame=  140 fps=3.5 q=39.0 size=       1kB time=00:00:01.24 bitrate=   4.7kbits/s speed=0.0306x    frame=  142 fps=3.4 q=38.0 size=       1kB time=00:00:01.28 bitrate=   4.6kbits/s speed=0.0311x    frame=  146 fps=3.4 q=39.0 size=       1kB time=00:00:01.36 bitrate=   4.3kbits/s speed=0.0317x    frame=  148 fps=3.3 q=38.0 size=       1kB time=00:00:01.40 bitrate=   4.2kbits/s speed=0.0316x    frame=  149 fps=3.3 q=38.0 size=       1kB time=00:00:01.42 bitrate=   4.1kbits/s speed=0.0313x    frame=  154 fps=3.3 q=38.0 size=       1kB time=00:00:01.52 bitrate=   3.9kbits/s speed=0.0323x    frame=  155 fps=3.2 q=38.0 size=       1kB time=00:00:01.54 bitrate=   3.8kbits/s speed=0.0315x    frame=  158 fps=3.1 q=37.0 size=       1kB time=00:00:01.60 bitrate=   3.7kbits/s speed=0.0316x    frame=  161 fps=3.1 q=37.0 size=       1kB time=00:00:01.66 bitrate=   3.5kbits/s speed=0.032x    frame=  164 fps=3.0 q=37.0 size=       1kB time=00:00:01.72 bitrate=   3.4kbits/s speed=0.0319x    frame=  166 fps=3.0 q=37.0 size=       1kB time=00:00:01.76 bitrate=   3.3kbits/s speed=0.0321x    frame=  167 fps=3.0 q=37.0 size=       1kB time=00:00:01.78 bitrate=   3.3kbits/s speed=0.0319x    frame=  170 fps=3.0 q=36.0 size=       1kB time=00:00:01.84 bitrate=   3.2kbits/s speed=0.0325x    frame=  172 fps=3.0 q=36.0 size=       1kB time=00:00:01.88 bitrate=   3.1kbits/s speed=0.0323x    frame=  173 fps=2.9 q=36.0 size=       1kB time=00:00:01.90 bitrate=   3.1kbits/s speed=0.032x    frame=  174 fps=2.9 q=36.0 size=       1kB time=00:00:01.92 bitrate=   3.1kbits/s speed=0.032x    frame=  176 fps=2.9 q=36.0 size=       1kB time=00:00:01.96 bitrate=   3.0kbits/s speed=0.0321x    frame=  179 fps=2.9 q=36.0 size=       1kB time=00:00:02.02 bitrate=   2.9kbits/s speed=0.0325x    frame=  180 fps=2.9 q=36.0 size=       1kB time=00:00:02.04 bitrate=   2.9kbits/s speed=0.0324x    frame=  182 fps=2.8 q=36.0 size=       1kB time=00:00:02.08 bitrate=   2.8kbits/s speed=0.0321x    frame=  184 fps=2.8 q=35.0 size=       1kB time=00:00:02.12 bitrate=   2.8kbits/s speed=0.032x    frame=  185 fps=2.8 q=35.0 size=       1kB time=00:00:02.14 bitrate=   2.8kbits/s speed=0.032x    frame=  188 fps=2.8 q=35.0 size=       1kB time=00:00:02.20 bitrate=   2.7kbits/s speed=0.0325x    frame=  190 fps=2.7 q=35.0 size=       1kB time=00:00:02.24 bitrate=   2.6kbits/s speed=0.0323x    frame=  191 fps=2.7 q=35.0 size=       1kB time=00:00:02.26 bitrate=   2.6kbits/s speed=0.0321x    frame=  192 fps=2.7 q=35.0 size=       1kB time=00:00:02.28 bitrate=   2.6kbits/s speed=0.0321x    frame=  193 fps=2.7 q=35.0 size=       1kB time=00:00:02.30 bitrate=   2.6kbits/s speed=0.032x    frame=  195 fps=2.7 q=35.0 size=       1kB time=00:00:02.34 bitrate=   2.5kbits/s speed=0.0321x    frame=  197 fps=2.7 q=35.0 size=       1kB time=00:00:02.38 bitrate=   2.5kbits/s speed=0.0323x    frame=  198 fps=2.7 q=35.0 size=       1kB time=00:00:02.40 bitrate=   2.5kbits/s speed=0.0323x    frame=  199 fps=2.6 q=35.0 size=       1kB time=00:00:02.42 bitrate=   2.4kbits/s speed=0.0319x    frame=  202 fps=2.6 q=35.0 size=       1kB time=00:00:02.48 bitrate=   2.4kbits/s speed=0.0319x    frame=  204 fps=2.6 q=34.0 size=       1kB time=00:00:02.52 bitrate=   2.3kbits/s speed=0.0321x    frame=  206 fps=2.6 q=34.0 size=       1kB time=00:00:02.56 bitrate=   2.3kbits/s speed=0.0324x    frame=  208 fps=2.6 q=34.0 size=       1kB time=00:00:02.60 bitrate=   2.3kbits/s speed=0.032x    frame=  209 fps=2.5 q=34.0 size=       1kB time=00:00:02.62 bitrate=   2.2kbits/s speed=0.0316x    frame=  210 fps=2.5 q=34.0 size=       1kB time=00:00:02.64 bitrate=   2.2kbits/s speed=0.0317x    frame=  215 fps=2.5 q=34.0 size=       1kB time=00:00:02.74 bitrate=   2.1kbits/s speed=0.0318x    frame=  216 fps=2.5 q=34.0 size=       1kB time=00:00:02.76 bitrate=   2.1kbits/s speed=0.0317x    frame=  218 fps=2.5 q=34.0 size=       1kB time=00:00:02.80 bitrate=   2.1kbits/s speed=0.0316x    frame=  219 fps=2.5 q=34.0 size=       1kB time=00:00:02.82 bitrate=   2.1kbits/s speed=0.0316x    frame=  222 fps=2.5 q=34.0 size=       1kB time=00:00:02.88 bitrate=   2.0kbits/s speed=0.0321x    frame=  223 fps=2.5 q=34.0 size=       1kB time=00:00:02.90 bitrate=   2.0kbits/s speed=0.032x    frame=  224 fps=2.4 q=34.0 size=       1kB time=00:00:02.92 bitrate=   2.0kbits/s speed=0.0316x    frame=  226 fps=2.4 q=34.0 size=       1kB time=00:00:02.96 bitrate=   2.0kbits/s speed=0.0315x    frame=  228 fps=2.4 q=34.0 size=       1kB time=00:00:03.00 bitrate=   2.0kbits/s speed=0.0315x    frame=  230 fps=2.4 q=34.0 size=       1kB time=00:00:03.04 bitrate=   1.9kbits/s speed=0.0316x    frame=  232 fps=2.4 q=33.0 size=       1kB time=00:00:03.08 bitrate=   1.9kbits/s speed=0.0317x    frame=  233 fps=2.4 q=34.0 size=    5154kB time=00:00:03.10 bitrate=13615.1kbits/s speed=0.0315x    frame=  234 fps=2.3 q=33.0 size=    5154kB time=00:00:03.12 bitrate=13527.8kbits/s speed=0.0313x    frame=  238 fps=2.4 q=34.0 size=    5154kB time=00:00:03.20 bitrate=13189.7kbits/s speed=0.0318x    frame=  239 fps=2.3 q=34.0 size=    5154kB time=00:00:03.22 bitrate=13107.8kbits/s speed=0.0313x    frame=  240 fps=2.3 q=34.0 size=    5154kB time=00:00:03.24 bitrate=13027.0kbits/s speed=0.0312x    frame=  245 fps=2.3 q=33.0 size=    5154kB time=00:00:03.34 bitrate=12637.0kbits/s speed=0.0317x    frame=  246 fps=2.3 q=33.0 size=    5154kB time=00:00:03.36 bitrate=12561.8kbits/s speed=0.0315x    frame=  247 fps=2.3 q=33.0 size=    5154kB time=00:00:03.38 bitrate=12487.5kbits/s speed=0.0311x    frame=  249 fps=2.3 q=33.0 size=    5154kB time=00:00:03.42 bitrate=12341.5kbits/s speed=0.0313x    frame=  251 fps=2.3 q=33.0 size=    5154kB time=00:00:03.46 bitrate=12198.9kbits/s speed=0.0314x    frame=  252 fps=2.3 q=33.0 size=    5154kB time=00:00:03.48 bitrate=12128.8kbits/s speed=0.0313x    frame=  253 fps=2.3 q=33.0 size=    5154kB time=00:00:03.50 bitrate=12059.5kbits/s speed=0.0314x    frame=  254 fps=2.3 q=33.0 size=    5154kB time=00:00:03.52 bitrate=11991.0kbits/s speed=0.0313x    frame=  257 fps=2.3 q=33.0 size=    5154kB time=00:00:03.58 bitrate=11790.1kbits/s speed=0.0316x    frame=  258 fps=2.3 q=33.0 size=    5154kB time=00:00:03.60 bitrate=11724.6kbits/s speed=0.0315x    frame=  259 fps=2.2 q=33.0 size=    5154kB time=00:00:03.62 bitrate=11659.9kbits/s speed=0.0315x    frame=  260 fps=2.2 q=33.0 size=    5154kB time=00:00:03.64 bitrate=11595.8kbits/s speed=0.031x    frame=  262 fps=2.2 q=33.0 size=    5154kB time=00:00:03.68 bitrate=11469.8kbits/s speed=0.0312x    frame=  266 fps=2.2 q=33.0 size=    5154kB time=00:00:03.76 bitrate=11225.8kbits/s speed=0.0312x    frame=  267 fps=2.2 q=33.0 size=    5154kB time=00:00:03.78 bitrate=11166.5kbits/s speed=0.0311x    frame=  269 fps=2.2 q=33.0 size=    5154kB time=00:00:03.82 bitrate=11049.6kbits/s speed=0.0309x    frame=  271 fps=2.2 q=33.0 size=    5154kB time=00:00:03.86 bitrate=10935.1kbits/s speed=0.031x    frame=  275 fps=2.2 q=33.0 size=    5154kB time=00:00:03.94 bitrate=10713.1kbits/s speed=0.031x    frame=  277 fps=2.2 q=33.0 size=    5154kB time=00:00:03.98 bitrate=10605.5kbits/s speed=0.0312x    frame=  278 fps=2.1 q=33.0 size=    5154kB time=00:00:04.00 bitrate=10552.5kbits/s speed=0.0308x    frame=  280 fps=2.1 q=33.0 size=    5154kB time=00:00:04.04 bitrate=10448.0kbits/s speed=0.0309x    frame=  284 fps=2.1 q=33.0 size=    5154kB time=00:00:04.12 bitrate=10245.2kbits/s speed=0.031x    frame=  285 fps=2.1 q=33.0 size=    5154kB time=00:00:04.14 bitrate=10195.7kbits/s speed=0.031x    frame=  287 fps=2.1 q=33.0 size=    5154kB time=00:00:04.18 bitrate=10098.2kbits/s speed=0.0308x    frame=  289 fps=2.1 q=33.0 size=    5154kB time=00:00:04.22 bitrate=10002.5kbits/s speed=0.0309x    frame=  292 fps=2.1 q=33.0 size=    5154kB time=00:00:04.28 bitrate=9862.3kbits/s speed=0.0312x    frame=  293 fps=2.1 q=33.0 size=    5154kB time=00:00:04.30 bitrate=9816.4kbits/s speed=0.031x    frame=  295 fps=2.1 q=33.0 size=    5154kB time=00:00:04.34 bitrate=9726.0kbits/s speed=0.0307x    frame=  297 fps=2.1 q=32.0 size=    5154kB time=00:00:04.38 bitrate=9637.2kbits/s speed=0.0308x    frame=  301 fps=2.1 q=33.0 size=    5154kB time=00:00:04.46 bitrate=9464.3kbits/s speed=0.0309x    frame=  302 fps=2.1 q=33.0 size=    5154kB time=00:00:04.48 bitrate=9422.1kbits/s speed=0.0309x    frame=  303 fps=2.1 q=33.0 size=    5154kB time=00:00:04.50 bitrate=9380.2kbits/s speed=0.0306x    frame=  304 fps=2.1 q=33.0 size=    5154kB time=00:00:04.52 bitrate=9338.7kbits/s speed=0.0306x    frame=  307 fps=2.1 q=33.0 size=    5154kB time=00:00:04.58 bitrate=9216.4kbits/s speed=0.0309x    frame=  309 fps=2.1 q=33.0 size=    5154kB time=00:00:04.62 bitrate=9136.6kbits/s speed=0.0307x    frame=  310 fps=2.0 q=33.0 size=    5154kB time=00:00:04.64 bitrate=9097.3kbits/s speed=0.0305x    frame=  312 fps=2.0 q=33.0 size=    5154kB time=00:00:04.68 bitrate=9019.5kbits/s speed=0.0305x    frame=  313 fps=2.0 q=33.0 size=    5154kB time=00:00:04.70 bitrate=8981.1kbits/s speed=0.0302x    frame=  318 fps=2.0 q=33.0 size=    5154kB time=00:00:04.80 bitrate=8794.1kbits/s speed=0.0301x    frame=  320 fps=2.0 q=30.0 size=    5154kB time=00:00:04.84 bitrate=8721.4kbits/s speed=0.0302x    frame=  324 fps=2.0 q=33.0 size=    5154kB time=00:00:04.92 bitrate=8579.6kbits/s speed=0.0303x    frame=  326 fps=2.0 q=33.0 size=    7810kB time=00:00:04.96 bitrate=12897.2kbits/s speed=0.0303x    frame=  328 fps=2.0 q=33.0 size=    7810kB time=00:00:05.00 bitrate=12794.1kbits/s speed=0.0305x    frame=  332 fps=2.0 q=33.0 size=    7810kB time=00:00:05.08 bitrate=12592.7kbits/s speed=0.0308x    frame=  333 fps=2.0 q=34.0 size=    7810kB time=00:00:05.10 bitrate=12543.3kbits/s speed=0.0307x    frame=  336 fps=2.0 q=34.0 size=    7810kB time=00:00:05.16 bitrate=12397.5kbits/s speed=0.0308x    frame=  342 fps=2.0 q=34.0 size=    7810kB time=00:00:05.28 bitrate=12115.7kbits/s speed=0.0312x    frame=  344 fps=2.0 q=34.0 size=    7810kB time=00:00:05.32 bitrate=12024.7kbits/s speed=0.0313x    frame=  345 fps=2.0 q=34.0 size=    7810kB time=00:00:05.34 bitrate=11979.6kbits/s speed=0.0311x    frame=  351 fps=2.0 q=34.0 size=    7810kB time=00:00:05.46 bitrate=11716.4kbits/s speed=0.0314x    frame=  352 fps=2.0 q=34.0 size=    7810kB time=00:00:05.48 bitrate=11673.6kbits/s speed=0.0314x    frame=  354 fps=2.0 q=34.0 size=    7810kB time=00:00:05.52 bitrate=11589.1kbits/s speed=0.0313x    frame=  356 fps=2.0 q=34.0 size=    7810kB time=00:00:05.56 bitrate=11505.7kbits/s speed=0.0314x    frame=  360 fps=2.0 q=34.0 size=    7810kB time=00:00:05.64 bitrate=11342.5kbits/s speed=0.0314x    frame=  363 fps=2.0 q=34.0 size=    7810kB time=00:00:05.70 bitrate=11223.2kbits/s speed=0.0313x    frame=  365 fps=2.0 q=34.0 size=    7810kB time=00:00:05.74 bitrate=11145.0kbits/s speed=0.0314x    frame=  369 fps=2.0 q=34.0 size=    7810kB time=00:00:05.82 bitrate=10991.8kbits/s speed=0.0316x    frame=  371 fps=2.0 q=33.0 size=    7810kB time=00:00:05.86 bitrate=10916.8kbits/s speed=0.0317x    frame=  372 fps=2.0 q=34.0 size=    7810kB time=00:00:05.88 bitrate=10879.7kbits/s speed=0.0315x    frame=  374 fps=2.0 q=34.0 size=    7810kB time=00:00:05.92 bitrate=10806.2kbits/s speed=0.0316x    frame=  376 fps=2.0 q=34.0 size=    7810kB time=00:00:05.96 bitrate=10733.6kbits/s speed=0.0316x    frame=  377 fps=2.0 q=33.0 size=    7810kB time=00:00:05.98 bitrate=10697.8kbits/s speed=0.0313x    frame=  379 fps=2.0 q=33.0 size=    7810kB time=00:00:06.02 bitrate=10626.7kbits/s speed=0.0314x    frame=  383 fps=2.0 q=33.0 size=    7810kB time=00:00:06.10 bitrate=10487.3kbits/s speed=0.0315x    frame=  385 fps=2.0 q=33.0 size=    7810kB time=00:00:06.14 bitrate=10419.0kbits/s speed=0.0315x    frame=  386 fps=2.0 q=33.0 size=    7810kB time=00:00:06.16 bitrate=10385.2kbits/s speed=0.0313x    frame=  387 fps=2.0 q=33.0 size=    7810kB time=00:00:06.18 bitrate=10351.6kbits/s speed=0.0313x    frame=  391 fps=2.0 q=33.0 size=    7810kB time=00:00:06.26 bitrate=10219.3kbits/s speed=0.0313x    frame=  392 fps=2.0 q=33.0 size=    7810kB time=00:00:06.28 bitrate=10186.8kbits/s speed=0.0313x    frame=  395 fps=2.0 q=33.0 size=    7810kB time=00:00:06.34 bitrate=10090.4kbits/s speed=0.0315x    frame=  397 fps=1.9 q=33.0 size=    7810kB time=00:00:06.38 bitrate=10027.2kbits/s speed=0.0313x    frame=  398 fps=1.9 q=33.0 size=    7810kB time=00:00:06.40 bitrate=9995.8kbits/s speed=0.0312x    frame=  400 fps=1.9 q=33.0 size=    7810kB time=00:00:06.44 bitrate=9933.7kbits/s speed=0.0312x    frame=  401 fps=1.9 q=33.0 size=    7810kB time=00:00:06.46 bitrate=9903.0kbits/s speed=0.0312x    frame=  404 fps=1.9 q=33.0 size=    7810kB time=00:00:06.52 bitrate=9811.9kbits/s speed=0.0314x    frame=  406 fps=1.9 q=33.0 size=    7810kB time=00:00:06.56 bitrate=9752.1kbits/s speed=0.0313x    frame=  407 fps=1.9 q=33.0 size=    7810kB time=00:00:06.58 bitrate=9722.4kbits/s speed=0.0312x    frame=  409 fps=1.9 q=33.0 size=    7810kB time=00:00:06.62 bitrate=9663.7kbits/s speed=0.0311x    frame=  411 fps=1.9 q=33.0 size=    7810kB time=00:00:06.66 bitrate=9605.7kbits/s speed=0.0312x    frame=  415 fps=1.9 q=33.0 size=    7810kB time=00:00:06.74 bitrate=9491.7kbits/s speed=0.0312x    frame=  416 fps=1.9 q=33.0 size=    7810kB time=00:00:06.76 bitrate=9463.6kbits/s speed=0.0312x    frame=  418 fps=1.9 q=33.0 size=    7810kB time=00:00:06.80 bitrate=9407.9kbits/s speed=0.031x    frame=  420 fps=1.9 q=33.0 size=    7810kB time=00:00:06.84 bitrate=9352.9kbits/s speed=0.0311x    frame=  424 fps=1.9 q=33.0 size=    7810kB time=00:00:06.92 bitrate=9244.8kbits/s speed=0.0311x    frame=  426 fps=1.9 q=33.0 size=    7810kB time=00:00:06.96 bitrate=9191.7kbits/s speed=0.0311x    frame=  427 fps=1.9 q=33.0 size=    7810kB time=00:00:06.98 bitrate=9165.3kbits/s speed=0.0309x    frame=  429 fps=1.9 q=33.0 size=    7810kB time=00:00:07.02 bitrate=9113.1kbits/s speed=0.031x    frame=  433 fps=1.9 q=33.0 size=    7810kB time=00:00:07.10 bitrate=9010.5kbits/s speed=0.0309x    frame=  436 fps=1.9 q=33.0 size=    7810kB time=00:00:07.16 bitrate=8935.0kbits/s speed=0.0308x    frame=  438 fps=1.9 q=33.0 size=    7810kB time=00:00:07.20 bitrate=8885.3kbits/s speed=0.0309x    frame=  442 fps=1.9 q=33.0 size=    7810kB time=00:00:07.28 bitrate=8787.7kbits/s speed=0.0309x    frame=  444 fps=1.9 q=33.0 size=    7810kB time=00:00:07.32 bitrate=8739.7kbits/s speed=0.031x    frame=  445 fps=1.9 q=33.0 size=    7810kB time=00:00:07.34 bitrate=8715.9kbits/s speed=0.0307x    frame=  447 fps=1.9 q=33.0 size=    7810kB time=00:00:07.38 bitrate=8668.6kbits/s speed=0.0308x    frame=  451 fps=1.9 q=33.0 size=    7810kB time=00:00:07.46 bitrate=8575.7kbits/s speed=0.0308x    frame=  452 fps=1.9 q=33.0 size=    7810kB time=00:00:07.48 bitrate=8552.8kbits/s speed=0.0307x    frame=  454 fps=1.9 q=33.0 size=    7810kB time=00:00:07.52 bitrate=8507.3kbits/s speed=0.0308x    frame=  457 fps=1.9 q=33.0 size=    7810kB time=00:00:07.58 bitrate=8439.9kbits/s speed=0.0307x    frame=  458 fps=1.8 q=33.0 size=    7810kB time=00:00:07.60 bitrate=8417.7kbits/s speed=0.0307x    frame=  463 fps=1.8 q=33.0 size=   13003kB time=00:00:07.70 bitrate=13832.0kbits/s speed=0.0305x    frame=  465 fps=1.8 q=33.0 size=   13003kB time=00:00:07.74 bitrate=13760.5kbits/s speed=0.0306x    frame=  469 fps=1.8 q=33.0 size=   13003kB time=00:00:07.82 bitrate=13619.8kbits/s speed=0.0306x    frame=  472 fps=1.8 q=33.0 size=   13003kB time=00:00:07.88 bitrate=13516.1kbits/s speed=0.0306x    frame=  474 fps=1.8 q=33.0 size=   13003kB time=00:00:07.92 bitrate=13447.8kbits/s speed=0.0306x    frame=  478 fps=1.8 q=33.0 size=   13003kB time=00:00:08.00 bitrate=13313.4kbits/s speed=0.0307x    frame=  479 fps=1.8 q=33.0 size=   13003kB time=00:00:08.02 bitrate=13280.2kbits/s speed=0.0305x    frame=  481 fps=1.8 q=33.0 size=   13003kB time=00:00:08.06 bitrate=13214.3kbits/s speed=0.0305x    frame=  485 fps=1.8 q=33.0 size=   13003kB time=00:00:08.14 bitrate=13084.4kbits/s speed=0.0306x    frame=  487 fps=1.8 q=33.0 size=   13003kB time=00:00:08.18 bitrate=13020.5kbits/s speed=0.0307x    frame=  488 fps=1.8 q=33.0 size=   13003kB time=00:00:08.20 bitrate=12988.7kbits/s speed=0.0304x    frame=  490 fps=1.8 q=33.0 size=   13003kB time=00:00:08.24 bitrate=12925.7kbits/s speed=0.0305x    frame=  494 fps=1.8 q=33.0 size=   13003kB time=00:00:08.32 bitrate=12801.4kbits/s speed=0.0306x    frame=  495 fps=1.8 q=33.0 size=   13003kB time=00:00:08.34 bitrate=12770.7kbits/s speed=0.0304x    frame=  497 fps=1.8 q=33.0 size=   13003kB time=00:00:08.38 bitrate=12709.7kbits/s speed=0.0305x    frame=  500 fps=1.8 q=33.0 size=   13003kB time=00:00:08.44 bitrate=12619.4kbits/s speed=0.0305x    frame=  500 fps=1.5 q=-1.0 Lsize=   16897kB time=00:00:09.94 bitrate=13924.4kbits/s speed=0.0306x    
video:16893kB audio:0kB subtitle:0kB other streams:0kB global headers:0kB muxing overhead: 0.027234%
bench: utime=1237.340s
bench: maxrss=3702308kB
[libx264 @ 0x3723120] frame I:3     Avg QP:28.29  size:863096
[libx264 @ 0x3723120] frame P:63    Avg QP:33.14  size:102020
[libx264 @ 0x3723120] frame B:434   Avg QP:35.53  size: 19080
[libx264 @ 0x3723120] consecutive B-frames:  0.8%  0.0%  0.0%  1.6%  4.0%  3.6% 11.2% 17.6% 61.2%
[libx264 @ 0x3723120] mb I  I16..4:  6.8% 89.2%  4.1%
[libx264 @ 0x3723120] mb P  I16..4:  0.1%  0.4%  0.0%  P16..4: 49.7%  6.4% 11.8%  0.0%  0.0%    skip:31.6%
[libx264 @ 0x3723120] mb B  I16..4:  0.0%  0.0%  0.0%  B16..8: 48.3%  0.5%  0.1%  direct: 0.2%  skip:50.8%  L0:51.5% L1:48.3% BI: 0.2%
[libx264 @ 0x3723120] final ratefactor: 25.32
[libx264 @ 0x3723120] 8x8 transform intra:88.6% inter:66.1%
[libx264 @ 0x3723120] direct mvs  spatial:99.1% temporal:0.9%
[libx264 @ 0x3723120] coded y,uvDC,uvAC intra: 96.8% 86.7% 73.9% inter: 3.2% 2.1% 0.0%
[libx264 @ 0x3723120] i16 v,h,dc,p: 16% 22% 42% 20%
[libx264 @ 0x3723120] i8 v,h,dc,ddl,ddr,vr,hd,vl,hu:  6%  9%  3% 13% 16% 14% 18% 10% 12%
[libx264 @ 0x3723120] i4 v,h,dc,ddl,ddr,vr,hd,vl,hu:  3%  5%  1% 13% 17% 14% 20% 11% 15%
[libx264 @ 0x3723120] i8c dc,h,v,p: 52% 21% 13% 14%
[libx264 @ 0x3723120] Weighted P-Frames: Y:3.2% UV:1.6%
[libx264 @ 0x3723120] ref P L0: 48.4% 15.2% 18.7%  4.1%  3.9%  2.6%  2.6%  0.7%  0.7%  0.6%  0.6%  0.5%  0.5%  0.4%  0.4%  0.1%
[libx264 @ 0x3723120] ref B L0: 72.3%  9.2%  7.1%  2.4%  2.1%  1.9%  1.7%  0.5%  0.5%  0.5%  0.5%  0.5%  0.4%  0.3%  0.1%
[libx264 @ 0x3723120] ref B L1: 94.3%  5.7%
[libx264 @ 0x3723120] kb/s:13837.88
